<svg width="48" height="48" viewBox="0 0 48 48" fill="none" xmlns="http://www.w3.org/2000/svg">
  <circle cx="24" cy="24" r="24" fill="#6F42C1"/>
  <path d="M24 25C26.7614 25 29 22.7614 29 20C29 17.2386 26.7614 15 24 15C21.2386 15 19 17.2386 19 20C19 22.7614 21.2386 25 24 25Z" fill="white"/>
  <path d="M33 35C33 29.4772 28.9706 25 24 25C19.0294 25 15 29.4772 15 35" stroke="white" stroke-width="3" stroke-linecap="round"/>
  <path d="M24 25C26.7614 25 29 22.7614 29 20C29 17.2386 26.7614 15 24 15C21.2386 15 19 17.2386 19 20C19 22.7614 21.2386 25 24 25Z" stroke="white" stroke-width="2" stroke-linecap="round" stroke-linejoin="round"/>
  <path d="M16 32.5C16.75 30.5 18.5 28 23 28" stroke="white" stroke-width="2" stroke-linecap="round" stroke-linejoin="round"/>
  <path d="M32 32.5C31.25 30.5 29.5 28 25 28" stroke="white" stroke-width="2" stroke-linecap="round" stroke-linejoin="round"/>
</svg> 