<svg width="40" height="40" viewBox="0 0 40 40" fill="none" xmlns="http://www.w3.org/2000/svg">
  <circle cx="20" cy="20" r="20" fill="#ffffff" />
  <path d="M32 28H8C7.45 28 7 27.55 7 27V11C7 10.45 6.55 10 6 10C5.45 10 5 10.45 5 11V27C5 28.65 6.35 30 8 30H32C32.55 30 33 29.55 33 29C33 28.45 32.55 28 32 28Z" fill="#03DAC6"/>
  <path d="M12 22H10C9.45 22 9 22.45 9 23V26C9 26.55 9.45 27 10 27H12C12.55 27 13 26.55 13 26V23C13 22.45 12.55 22 12 22Z" fill="#03DAC6"/>
  <path d="M17 18H15C14.45 18 14 18.45 14 19V26C14 26.55 14.45 27 15 27H17C17.55 27 18 26.55 18 26V19C18 18.45 17.55 18 17 18Z" fill="#03DAC6"/>
  <path d="M22 14H20C19.45 14 19 14.45 19 15V26C19 26.55 19.45 27 20 27H22C22.55 27 23 26.55 23 26V15C23 14.45 22.55 14 22 14Z" fill="#03DAC6"/>
  <path d="M27 8H25C24.45 8 24 8.45 24 9V26C24 26.55 24.45 27 25 27H27C27.55 27 28 26.55 28 26V9C28 8.45 27.55 8 27 8Z" fill="#03DAC6"/>
  <path d="M34 19H32C31.45 19 31 19.45 31 20V26C31 26.55 31.45 27 32 27H34C34.55 27 35 26.55 35 26V20C35 19.45 34.55 19 34 19Z" fill="#03DAC6"/>
</svg> 