<svg width="40" height="40" viewBox="0 0 40 40" fill="none" xmlns="http://www.w3.org/2000/svg">
  <path d="M35 20C35 28.2843 28.2843 35 20 35C11.7157 35 5 28.2843 5 20C5 11.7157 11.7157 5 20 5C28.2843 5 35 11.7157 35 20Z" fill="#6D5DFC" fill-opacity="0.1"/>
  <path d="M30 20C30 25.5228 25.5228 30 20 30C14.4772 30 10 25.5228 10 20C10 14.4772 14.4772 10 20 10C25.5228 10 30 14.4772 30 20Z" stroke="#6D5DFC" stroke-width="1.5" stroke-dasharray="2 2"/>
  <path d="M20 35L20 5" stroke="#6D5DFC" stroke-width="1.5" stroke-linecap="round"/>
  <path d="M35 20L5 20" stroke="#6D5DFC" stroke-width="1.5" stroke-linecap="round"/>
  <circle cx="14" cy="14" r="2.5" fill="#6D5DFC" stroke="#6D5DFC"/>
  <circle cx="26" cy="14" r="2.5" fill="#6D5DFC" stroke="#6D5DFC"/>
  <circle cx="14" cy="26" r="2.5" fill="#6D5DFC" stroke="#6D5DFC"/>
  <circle cx="26" cy="26" r="2.5" fill="#6D5DFC" stroke="#6D5DFC"/>
  <path d="M16 14H24" stroke="#6D5DFC" stroke-width="1.5" stroke-linecap="round"/>
  <path d="M16 26H24" stroke="#6D5DFC" stroke-width="1.5" stroke-linecap="round"/>
  <path d="M14 16V24" stroke="#6D5DFC" stroke-width="1.5" stroke-linecap="round"/>
  <path d="M26 16V24" stroke="#6D5DFC" stroke-width="1.5" stroke-linecap="round"/>
</svg> 