<svg width="40" height="40" viewBox="0 0 40 40" fill="none" xmlns="http://www.w3.org/2000/svg">
  <circle cx="20" cy="20" r="20" fill="#ffffff" />
  <path d="M20 6C12.27 6 6 12.27 6 20C6 27.73 12.27 34 20 34C27.73 34 34 27.73 34 20C34 12.27 27.73 6 20 6ZM20 32C13.37 32 8 26.63 8 20C8 13.37 13.37 8 20 8C26.63 8 32 13.37 32 20C32 26.63 26.63 32 20 32Z" fill="#6F42C1"/>
  <path d="M20 16C21.6569 16 23 14.6569 23 13C23 11.3431 21.6569 10 20 10C18.3431 10 17 11.3431 17 13C17 14.6569 18.3431 16 20 16Z" fill="#6F42C1"/>
  <path d="M20 28C21.6569 28 23 26.6569 23 25C23 23.3431 21.6569 22 20 22C18.3431 22 17 23.3431 17 25C17 26.6569 18.3431 28 20 28Z" fill="#6F42C1"/>
  <path d="M13 20C13 21.6569 11.6569 23 10 23C8.34315 23 7 21.6569 7 20C7 18.3431 8.34315 17 10 17C11.6569 17 13 18.3431 13 20Z" fill="#6F42C1"/>
  <path d="M30 20C30 21.6569 28.6569 23 27 23C25.3431 23 24 21.6569 24 20C24 18.3431 25.3431 17 27 17C28.6569 17 30 18.3431 30 20Z" fill="#6F42C1"/>
  <path d="M14.1 14.1C14.1 15.3598 13.0799 16.38 11.82 16.38C10.5601 16.38 9.54 15.3598 9.54 14.1C9.54 12.8401 10.5601 11.82 11.82 11.82C13.0799 11.82 14.1 12.8401 14.1 14.1Z" fill="#6F42C1"/>
  <path d="M14.1 25.9C14.1 27.1598 13.0799 28.18 11.82 28.18C10.5601 28.18 9.54 27.1598 9.54 25.9C9.54 24.6401 10.5601 23.62 11.82 23.62C13.0799 23.62 14.1 24.6401 14.1 25.9Z" fill="#6F42C1"/>
  <path d="M28.18 14.1C28.18 15.3598 27.1598 16.38 25.9 16.38C24.6401 16.38 23.62 15.3598 23.62 14.1C23.62 12.8401 24.6401 11.82 25.9 11.82C27.1598 11.82 28.18 12.8401 28.18 14.1Z" fill="#6F42C1"/>
  <path d="M28.18 25.9C28.18 27.1598 27.1598 28.18 25.9 28.18C24.6401 28.18 23.62 27.1598 23.62 25.9C23.62 24.6401 24.6401 23.62 25.9 23.62C27.1598 23.62 28.18 24.6401 28.18 25.9Z" fill="#6F42C1"/>
</svg> 