<svg width="40" height="40" viewBox="0 0 40 40" fill="none" xmlns="http://www.w3.org/2000/svg">
  <circle cx="20" cy="20" r="20" fill="#ffffff" />
  <path d="M26.75 25.25H25.5875L25.1375 24.8125C26.55 23.175 27.5 21 27.5 18.625C27.5 13.6375 23.4625 9.6 18.475 9.6C13.4875 9.6 9.45 13.6375 9.45 18.625C9.45 23.6125 13.4875 27.65 18.475 27.65C20.85 27.65 23.025 26.7 24.6625 25.2875L25.1 25.7375V26.9L31.825 33.6125L33.4625 31.975L26.75 25.25ZM18.475 25.25C14.8125 25.25 11.85 22.2875 11.85 18.625C11.85 14.9625 14.8125 12 18.475 12C22.1375 12 25.1 14.9625 25.1 18.625C25.1 22.2875 22.1375 25.25 18.475 25.25Z" fill="#6D5DFC"/>
  <path d="M20.675 17.525H19.075V15.925H17.875V17.525H16.275V18.725H17.875V20.325H19.075V18.725H20.675V17.525Z" fill="#03DAC6"/>
</svg> 