<svg width="40" height="40" viewBox="0 0 40 40" fill="none" xmlns="http://www.w3.org/2000/svg">
  <circle cx="20" cy="20" r="20" fill="#ffffff" />
  <path d="M32 10H8C6.9 10 6 10.9 6 12V28C6 29.1 6.9 30 8 30H32C33.1 30 34 29.1 34 28V12C34 10.9 33.1 10 32 10ZM32 28H8V12H32V28Z" fill="#03DAC6"/>
  <path d="M16 24C18.21 24 20 22.21 20 20C20 17.79 18.21 16 16 16C13.79 16 12 17.79 12 20C12 22.21 13.79 24 16 24ZM16 18C17.1 18 18 18.9 18 20C18 21.1 17.1 22 16 22C14.9 22 14 21.1 14 20C14 18.9 14.9 18 16 18Z" fill="#03DAC6"/>
  <path d="M16 14H25C25.55 14 26 13.55 26 13C26 12.45 25.55 12 25 12H16C15.45 12 15 12.45 15 13C15 13.55 15.45 14 16 14Z" fill="#03DAC6"/>
  <path d="M25 26H16C15.45 26 15 26.45 15 27C15 27.55 15.45 28 16 28H25C25.55 28 26 27.55 26 27C26 26.45 25.55 26 25 26Z" fill="#03DAC6"/>
  <path d="M29 16C28.45 16 28 16.45 28 17V17.41L24.91 20.5L22.91 18.5C22.8827 18.4727 22.8519 18.4496 22.8186 18.4308C22.5343 18.1571 22.0657 18.1571 21.7814 18.4308C21.7481 18.4496 21.7173 18.4727 21.69 18.5L20.69 19.5C20.3 19.89 20.3 20.52 20.69 20.91C21.08 21.3 21.71 21.3 22.1 20.91L22.51 20.5L24.51 22.5C24.8927 22.8827 25.5173 22.8827 25.9 22.5L29.59 18.83V19C29.59 19.55 30.04 20 30.59 20C31.14 20 31.59 19.55 31.59 19V17C31.59 16.45 31.14 16 30.59 16H29Z" fill="#03DAC6"/>
</svg> 