<svg width="40" height="40" viewBox="0 0 40 40" fill="none" xmlns="http://www.w3.org/2000/svg">
  <circle cx="20" cy="20" r="20" fill="#ffffff" />
  <path d="M32 12H8C6.9 12 6 12.9 6 14V26C6 27.1 6.9 28 8 28H32C33.1 28 34 27.1 34 26V14C34 12.9 33.1 12 32 12ZM32 14V14.8L20 21.5L8 14.8V14H32ZM32 26H8V17.2L19.6 23.7C19.73 23.78 19.87 23.82 20 23.82C20.13 23.82 20.27 23.78 20.4 23.7L32 17.2V26Z" fill="#03DAC6"/>
  <path d="M24 18H28C28.55 18 29 17.55 29 17C29 16.45 28.55 16 28 16H24C23.45 16 23 16.45 23 17C23 17.55 23.45 18 24 18Z" fill="#03DAC6"/>
  <path d="M24 22H28C28.55 22 29 21.55 29 21C29 20.45 28.55 20 28 20H24C23.45 20 23 20.45 23 21C23 21.55 23.45 22 24 22Z" fill="#03DAC6"/>
  <path d="M17 18C17.5523 18 18 17.5523 18 17C18 16.4477 17.5523 16 17 16C16.4477 16 16 16.4477 16 17C16 17.5523 16.4477 18 17 18Z" fill="#03DAC6"/>
  <path d="M13 18C13.5523 18 14 17.5523 14 17C14 16.4477 13.5523 16 13 16C12.4477 16 12 16.4477 12 17C12 17.5523 12.4477 18 13 18Z" fill="#03DAC6"/>
  <path d="M17 22C17.5523 22 18 21.5523 18 21C18 20.4477 17.5523 20 17 20C16.4477 20 16 20.4477 16 21C16 21.5523 16.4477 22 17 22Z" fill="#03DAC6"/>
  <path d="M13 22C13.5523 22 14 21.5523 14 21C14 20.4477 13.5523 20 13 20C12.4477 20 12 20.4477 12 21C12 21.5523 12.4477 22 13 22Z" fill="#03DAC6"/>
</svg> 