<svg width="40" height="40" viewBox="0 0 40 40" fill="none" xmlns="http://www.w3.org/2000/svg">
  <circle cx="20" cy="20" r="20" fill="white"/>
  <path d="M8 26H12V32H8V26Z" fill="#03DAC6"/>
  <path d="M16 22H20V32H16V22Z" fill="#03DAC6"/>
  <path d="M24 18H28V32H24V18Z" fill="#03DAC6"/>
  <path d="M32 14H28V16H32V14ZM24 14H20V16H24V14ZM16 14H12V16H16V14ZM8 14H4V16H8V14Z" fill="#03DAC6"/>
  <path d="M33 12C32.4477 12 32 11.5523 32 11C32 10.4477 32.4477 10 33 10C33.5523 10 34 10.4477 34 11C34 11.5523 33.5523 12 33 12Z" fill="#03DAC6"/>
  <path d="M30.293 11.707L25.5 16.5L20.5 11.5L14.5 17.5L6.707 9.707L7.414 9L14.5 16.086L20.5 10.086L25.5 15.086L29.586 11H28V10H32V14H31V12.414L30.293 11.707Z" fill="#03DAC6"/>
</svg> 