<svg width="40" height="40" viewBox="0 0 40 40" fill="none" xmlns="http://www.w3.org/2000/svg">
  <circle cx="20" cy="20" r="20" fill="#ffffff" />
  <path d="M28.2596 11.736C25.6545 9.13104 22.1714 7.67853 18.484 7.67853C10.8254 7.67853 4.58984 13.9141 4.58984 21.5728C4.58984 24.0234 5.19531 26.4082 6.34766 28.518L4.5 35.5L11.6328 33.6856C13.6484 34.7292 15.9414 35.2769 18.2754 35.2769H18.484C26.1328 35.2769 32.5 29.0413 32.5 21.3826C32.5 17.6952 30.8647 14.341 28.2596 11.736ZM18.484 32.832C16.3945 32.832 14.3496 32.3033 12.5586 31.3047L12.0703 31.0254L7.95703 32.0879L9.02969 28.0723L8.71094 27.5652C7.60742 25.6855 7.03438 23.6406 7.03438 21.5728C7.03438 15.2598 12.1719 10.123 18.4851 10.123C21.5313 10.123 24.3984 11.3545 26.5254 13.4815C28.6524 15.6086 29.8828 18.4756 29.8828 21.3826C29.8828 27.6968 24.7964 32.832 18.484 32.832ZM25.0527 24.3985C24.6758 24.209 23.0195 23.3931 23.0195 23.3931C22.6953 23.2393 22.4707 23.1626 22.1797 23.5396C21.8887 23.9165 21.2383 24.6667 21.0137 24.9577C20.7891 25.2487 20.5645 25.2872 20.1875 25.0977C19.8105 24.9083 18.7305 24.5652 17.4424 23.4146C16.4248 22.5216 15.7559 21.4231 15.5313 21.0462C15.3066 20.6692 15.5039 20.4621 15.7012 20.2757C15.877 20.1078 16.0821 19.8419 16.2683 19.6172C16.4546 19.3926 16.5313 19.2388 16.6855 18.9478C16.8398 18.6568 16.7627 18.4322 16.6465 18.2427C16.5313 18.0532 15.8613 16.3969 15.5703 15.643C15.2793 14.925 14.9883 15.0028 14.7637 14.9844C14.539 14.9661 14.315 14.9661 14.0918 14.9661C13.87 14.9661 13.508 15.0814 13.1836 15.4583C12.8594 15.8353 11.9668 16.6512 11.9668 18.3075C11.9668 19.9639 13.1453 21.5636 13.3316 21.8546C13.5179 22.1456 15.7539 25.583 19.1758 27.0197C19.9915 27.3823 20.6241 27.5912 21.1133 27.7455C21.891 27.9954 22.5981 27.9571 23.1612 27.8408C23.7974 27.7065 25.1797 26.9863 25.4707 26.0844C25.7617 25.1824 25.7617 24.429 25.6465 24.2396C25.5313 24.0501 25.4297 24.0501 25.0527 23.8606L25.0527 24.3985Z" fill="#25D366"/>
</svg>