<svg width="40" height="40" viewBox="0 0 40 40" fill="none" xmlns="http://www.w3.org/2000/svg">
  <circle cx="20" cy="20" r="20" fill="#ffffff" />
  <path d="M30 10H10C8.9 10 8 10.9 8 12V28C8 29.1 8.9 30 10 30H30C31.1 30 32 29.1 32 28V12C32 10.9 31.1 10 30 10Z" fill="#6F42C1" fill-opacity="0.1"/>
  <path d="M30 10H10C8.9 10 8 10.9 8 12V28C8 29.1 8.9 30 10 30H30C31.1 30 32 29.1 32 28V12C32 10.9 31.1 10 30 10ZM30 28H10V12H30V28Z" fill="#6F42C1"/>
  <path d="M14 16H26C26.55 16 27 15.55 27 15C27 14.45 26.55 14 26 14H14C13.45 14 13 14.45 13 15C13 15.55 13.45 16 14 16Z" fill="#6F42C1"/>
  <path d="M26 18H14C13.45 18 13 18.45 13 19C13 19.55 13.45 20 14 20H26C26.55 20 27 19.55 27 19C27 18.45 26.55 18 26 18Z" fill="#6F42C1"/>
  <path d="M26 22H14C13.45 22 13 22.45 13 23C13 23.55 13.45 24 14 24H26C26.55 24 27 23.55 27 23C27 22.45 26.55 22 26 22Z" fill="#6F42C1"/>
  <path d="M22 26H14C13.45 26 13 26.45 13 27C13 27.55 13.45 28 14 28H22C22.55 28 23 27.55 23 27C23 26.45 22.55 26 22 26Z" fill="#6F42C1"/>
</svg> 