<svg width="40" height="40" viewBox="0 0 40 40" fill="none" xmlns="http://www.w3.org/2000/svg">
  <circle cx="20" cy="20" r="20" fill="#ffffff" />
  <path d="M12.5 14C14.433 14 16 12.433 16 10.5C16 8.567 14.433 7 12.5 7C10.567 7 9 8.567 9 10.5C9 12.433 10.567 14 12.5 14Z" fill="#6F42C1"/>
  <path d="M27.5 14C29.433 14 31 12.433 31 10.5C31 8.567 29.433 7 27.5 7C25.567 7 24 8.567 24 10.5C24 12.433 25.567 14 27.5 14Z" fill="#6F42C1"/>
  <path d="M33 18C33 15.795 30.535 14 27.5 14C26.36 14 25.29 14.255 24.39 14.71C23.815 14.595 23.22 14.5 22.6 14.5C21.91 14.5 21.245 14.565 20.61 14.705C19.305 14.13 17.78 13.5 16 13.5C12.965 13.5 7 15.295 7 18.5V22.5C7 23.33 7.67 24 8.5 24H15V30C15 31.1 15.9 32 17 32H23C24.1 32 25 31.1 25 30V24H31.5C32.33 24 33 23.33 33 22.5V18ZM23 30H17V24H23V30ZM31 22H15.75C15.615 22 15.5 22.115 15.5 22.25C15.5 22.385 15.615 22.5 15.75 22.5H16.5C15.12 22.5 14 21.38 14 20C14 18.62 15.12 17.5 16.5 17.5C17.88 17.5 19 18.62 19 20H21C21 18.62 22.12 17.5 23.5 17.5C24.88 17.5 26 18.62 26 20C26 21.38 24.88 22.5 23.5 22.5H24.25C24.385 22.5 24.5 22.385 24.5 22.25C24.5 22.115 24.385 22 24.25 22H9V18.535C9.14 18.02 11.71 15.5 16 15.5C17.695 15.5 19.415 16.13 20.72 16.67C19.655 17.495 19 18.68 19 20H21C21 18.69 21.655 17.505 22.72 16.675C22.975 16.59 23.23 16.5 23.5 16.5C23.8 16.5 24.085 16.535 24.37 16.625C25.425 17.45 26 18.655 26 20C26 20.29 25.95 20.565 25.89 20.835C26.46 20.31 26.9 19.665 27.085 18.96C27.24 18.295 27.165 17.57 26.87 16.76C27.06 16.7 27.265 16.665 27.5 16.665C29.21 16.665 31 17.64 31 18.5V22Z" fill="#6F42C1"/>
</svg> 