<svg width="40" height="40" viewBox="0 0 40 40" fill="none" xmlns="http://www.w3.org/2000/svg">
  <circle cx="20" cy="20" r="20" fill="#ffffff" />
  <path d="M30 15.5952C28.9189 16.1375 27.7355 16.4955 26.4929 16.6411C27.7689 15.9042 28.7481 14.7142 29.2128 13.2708C28.0276 13.9794 26.7274 14.4875 25.3706 14.7614C24.2784 13.5822 22.7257 12.8536 21.0011 12.8536C17.682 12.8536 14.9864 15.5492 14.9864 18.8691C14.9864 19.3694 15.0424 19.8565 15.1501 20.3242C10.1877 20.0755 5.77909 17.6866 2.8171 14.0345C2.26979 14.9792 1.95604 16.0686 1.95604 17.2302C1.95604 19.4239 3.04489 21.3539 4.7219 22.4831C3.74027 22.4525 2.80785 22.1884 1.98815 21.7511C1.98815 21.777 1.98815 21.8037 1.98815 21.8304C1.98815 24.7527 4.0599 27.1944 6.80237 27.7738C6.26886 27.9115 5.7086 27.9851 5.13146 27.9851C4.7278 27.9851 4.33569 27.9462 3.95112 27.8747C4.74927 30.2766 6.97868 32.0291 9.62072 32.0788C7.55774 33.7047 4.97122 34.6726 2.17323 34.6726C1.66071 34.6726 1.15452 34.6433 0.65918 34.5859C3.3348 36.3114 6.50889 37.3133 9.93035 37.3133C21.9865 37.3133 28.5829 28.082 28.5829 20.099C28.5829 19.8439 28.577 19.5905 28.5652 19.3381C29.7653 18.5022 30.8172 17.4609 31.651 16.2559C30.5254 16.7462 29.3065 17.0788 28.0237 17.2243C28.2737 17.0673 30 15.5952 30 15.5952Z" fill="#01FFFFFF"/>
  <path fill-rule="evenodd" clip-rule="evenodd" d="M20 8C20 8 20.4298 12.3134 24.4294 13.2139C24.4294 13.2139 24.5192 15.2837 22.6379 17.1154C22.6379 17.1154 22.7774 24.6147 15.3191 24.9936C15.3191 24.9936 11.6981 25.4223 10 23.2727C10 23.2727 13.2709 24.0936 14.8715 21.9182C14.8715 21.9182 16.1219 20.3418 16.0719 18.7278C16.0719 18.7278 15.0467 18.4037 14.448 17.2136C14.448 17.2136 15.0519 16.9393 15.7004 16.0688C15.7004 16.0688 15.0318 15.6401 15.1714 14.4748C15.1714 14.4748 17.052 14.8786 17.6509 12.7042C17.6509 12.7042 17.8655 8.98073 20 8Z" fill="#01FFFFFF"/>
  <path d="M19.576 16.3125C19.5772 16.5031 19.5746 16.6938 19.576 16.8844C19.6211 21.3844 21.3992 23.6125 25.8992 24.1156V21.0656C23.9742 20.7031 22.8992 19.6344 22.6367 17.7406C22.6367 17.5219 22.6367 17.3031 22.6367 17.0844V16.8844H19.576V16.3125ZM30.9992 16.3125C30.0242 16.3125 29.048 16.3125 28.0729 16.3125C28.0729 17.8406 28.0729 19.3656 28.0729 20.8906C27.148 21.8938 25.973 22.2219 24.7242 22.0688C24.7242 23.0469 24.7242 24.0219 24.7242 25C25.8742 25.0375 26.9492 24.8094 27.9492 24.2656C28.3405 24.0479 28.7044 23.7859 29.0367 23.4844C30.0367 22.55 30.4867 21.35 30.4867 19.9844C30.5117 18.7531 30.9992 16.3125 30.9992 16.3125ZM19.1492 11.4844H16.1242V24.9375H19.1492V11.4844Z" fill="#00F2EA"/>
  <path d="M19.1492 11.4844H16.1242V24.9375H19.1492V11.4844Z" fill="#00F2EA"/>
  <path d="M28.0741 16.3125C28.0741 16.3125 27.8991 21.8313 24.7241 22.0688C21.5491 22.3063 19.5991 19.8063 19.5741 16.8844L16.5116 16.8844V24.9375H19.5741C19.5741 24.9375 19.5741 22.9313 19.5741 22.9375C19.5741 22.9438 22.6366 26.575 27.9491 24.2656C27.9491 24.2656 30.9991 22.8 30.9991 16.3125H28.0741Z" fill="#FF004F"/>
  <path d="M16.5131 16.3125H13.4881C13.4881 17.5625 14.1881 18.5438 15.0006 18.5438C15.8131 18.5438 16.5131 17.5625 16.5131 16.3125Z" fill="#FF004F"/>
  <path d="M19.5752 16.8844C19.6252 16.6844 19.5752 16.3125 19.5752 16.3125H16.5127V16.8844H19.5752Z" fill="#FF004F"/>
</svg> 