<svg width="40" height="40" viewBox="0 0 40 40" fill="none" xmlns="http://www.w3.org/2000/svg">
  <circle cx="20" cy="20" r="20" fill="#ffffff" />
  <path d="M12 8C9.79 8 8 9.79 8 12V16C8 18.21 9.79 20 12 20H16C18.21 20 20 18.21 20 16V12C20 9.79 18.21 8 16 8H12ZM12 10H16C17.1 10 18 10.9 18 12V16C18 17.1 17.1 18 16 18H12C10.9 18 10 17.1 10 16V12C10 10.9 10.9 10 12 10Z" fill="#6F42C1"/>
  <path d="M24 8C21.79 8 20 9.79 20 12V16C20 18.21 21.79 20 24 20H28C30.21 20 32 18.21 32 16V12C32 9.79 30.21 8 28 8H24ZM24 10H28C29.1 10 30 10.9 30 12V16C30 17.1 29.1 18 28 18H24C22.9 18 22 17.1 22 16V12C22 10.9 22.9 10 24 10Z" fill="#6F42C1"/>
  <path d="M12 20C9.79 20 8 21.79 8 24V28C8 30.21 9.79 32 12 32H16C18.21 32 20 30.21 20 28V24C20 21.79 18.21 20 16 20H12ZM12 22H16C17.1 22 18 22.9 18 24V28C18 29.1 17.1 30 16 30H12C10.9 30 10 29.1 10 28V24C10 22.9 10.9 22 12 22Z" fill="#6F42C1"/>
  <path d="M24 20C21.79 20 20 21.79 20 24V28C20 30.21 21.79 32 24 32H28C30.21 32 32 30.21 32 28V24C32 21.79 30.21 20 28 20H24ZM24 22H28C29.1 22 30 22.9 30 24V28C30 29.1 29.1 30 28 30H24C22.9 30 22 29.1 22 28V24C22 22.9 22.9 22 24 22Z" fill="#6F42C1"/>
  <path d="M14 14C14.5523 14 15 13.5523 15 13C15 12.4477 14.5523 12 14 12C13.4477 12 13 12.4477 13 13C13 13.5523 13.4477 14 14 14Z" fill="#6F42C1"/>
  <path d="M26 14C26.5523 14 27 13.5523 27 13C27 12.4477 26.5523 12 26 12C25.4477 12 25 12.4477 25 13C25 13.5523 25.4477 14 26 14Z" fill="#6F42C1"/>
  <path d="M14 26C14.5523 26 15 25.5523 15 25C15 24.4477 14.5523 24 14 24C13.4477 24 13 24.4477 13 25C13 25.5523 13.4477 26 14 26Z" fill="#6F42C1"/>
  <path d="M26 26C26.5523 26 27 25.5523 27 25C27 24.4477 26.5523 24 26 24C25.4477 24 25 24.4477 25 25C25 25.5523 25.4477 26 26 26Z" fill="#6F42C1"/>
</svg>