<svg width="40" height="40" viewBox="0 0 40 40" fill="none" xmlns="http://www.w3.org/2000/svg">
  <circle cx="20" cy="20" r="20" fill="#ffffff" />
  <path d="M26 12H14C12.9 12 12 12.9 12 14V22C12 23.1 12.9 24 14 24H26C27.1 24 28 23.1 28 22V14C28 12.9 27.1 12 26 12Z" fill="#03DAC6" fill-opacity="0.1"/>
  <path d="M26 12H14C12.9 12 12 12.9 12 14V22C12 23.1 12.9 24 14 24H26C27.1 24 28 23.1 28 22V14C28 12.9 27.1 12 26 12ZM26 14V15.5L20 19.5L14 15.5V14H26ZM26 22H14V17.5L19.6 21.3C19.73 21.38 19.87 21.42 20 21.42C20.13 21.42 20.27 21.38 20.4 21.3L26 17.5V22Z" fill="#03DAC6"/>
  <path d="M15 26H25C25.55 26 26 26.45 26 27C26 27.55 25.55 28 25 28H15C14.45 28 14 27.55 14 27C14 26.45 14.45 26 15 26Z" fill="#03DAC6"/>
  <path d="M33 25H31V19.93C31 19.3 30.735 18.695 30.268 18.268L29.5 17.5L30.268 16.732C30.735 16.305 31 15.7 31 15.07V10H33C33.55 10 34 9.55 34 9C34 8.45 33.55 8 33 8H25C24.45 8 24 8.45 24 9C24 9.55 24.45 10 25 10H29V15.07C29 15.17 28.965 15.265 28.904 15.333L27.4 16.833C27.146 17.091 27 17.436 27 17.794V18.206C27 18.564 27.146 18.909 27.4 19.167L28.904 20.667C28.965 20.735 29 20.83 29 20.93V25H7C6.45 25 6 25.45 6 26C6 26.55 6.45 27 7 27H9V32.07C9 32.7 9.265 33.305 9.732 33.732L10.5 34.5L9.732 35.268C9.265 35.695 9 36.3 9 36.93V38H7C6.45 38 6 38.45 6 39C6 39.55 6.45 40 7 40H15C15.55 40 16 39.55 16 39C16 38.45 15.55 38 15 38H11V36.93C11 36.83 11.035 36.735 11.096 36.667L12.6 35.167C12.854 34.909 13 34.564 13 34.206V33.794C13 33.436 12.854 33.091 12.6 32.833L11.096 31.333C11.035 31.265 11 31.17 11 31.07V27H33C33.55 27 34 26.55 34 26C34 25.45 33.55 25 33 25Z" fill="#03DAC6"/>
</svg> 