<svg width="40" height="40" viewBox="0 0 40 40" fill="none" xmlns="http://www.w3.org/2000/svg">
  <circle cx="20" cy="20" r="20" fill="#ffffff" />
  <path d="M29.6 20.227c0-.709-.064-1.39-.182-2.045H20v3.868h5.382a4.6 4.6 0 01-1.996 3.018v2.508h3.232c1.891-1.742 2.982-4.305 2.982-7.35z" fill="#4285F4"/>
  <path d="M20 30c2.7 0 4.964-.895 6.618-2.423l-3.232-2.509c-.895.6-2.04.955-3.386.955-2.605 0-4.81-1.76-5.595-4.123H11.05v2.59A10 10 0 0020 30z" fill="#34A853"/>
  <path d="M14.405 21.9c-.2-.6-.314-1.24-.314-1.9s.114-1.3.314-1.9v-2.59H11.05A9.996 9.996 0 0010 20c0 1.614.386 3.14 1.05 4.49l3.355-2.59z" fill="#FBBC05"/>
  <path d="M20 13.977c1.468 0 2.786.505 3.823 1.496l2.868-2.868C24.964 10.895 22.7 10 20 10a10 10 0 00-8.95 5.51l3.355 2.59c.786-2.364 2.99-4.123 5.595-4.123z" fill="#EA4335"/>
</svg> 