<svg width="40" height="40" viewBox="0 0 40 40" fill="none" xmlns="http://www.w3.org/2000/svg">
  <circle cx="20" cy="20" r="20" fill="#ffffff" />
  <path d="M28 10H12C10.9 10 10.01 10.9 10.01 12L10 28C10 29.1 10.9 30 12 30H28C29.1 30 30 29.1 30 28V12C30 10.9 29.1 10 28 10ZM16 26H14V18H16V26ZM21 26H19V14H21V26ZM26 26H24V22H26V26Z" fill="#6D5DFC"/>
  <rect x="14" y="18" width="2" height="8" fill="#03DAC6"/>
  <rect x="19" y="14" width="2" height="12" fill="#03DAC6"/>
  <rect x="24" y="22" width="2" height="4" fill="#03DAC6"/>
</svg> 